<svg xmlns="http://www.w3.org/2000/svg" width="275" height="35" viewBox="0 0 275 35" fill="none"><path d="M16.5758 13.7374L14.2253 17.1744C14.0043 15.8276 13.3055 14.6055 12.2568 13.732C11.2082 12.8585 9.87993 12.392 8.51537 12.418H6.73032L10.6996 6.51958H1.59692L4.01394 2.97166H17.1967L12.4957 9.74596C14.2485 10.6046 15.6789 12.0039 16.5758 13.7374Z" fill="#E85003"></path><path d="M53.2188 19.015C53.0006 20.9411 52.174 22.7474 50.859 24.1716C49.5441 25.5958 47.8093 26.5636 45.9067 26.9345C44.0041 27.3054 42.0328 27.06 40.2793 26.2339C38.5257 25.4079 37.0811 24.0443 36.1555 22.3412L38.4838 18.9485C38.7023 20.2728 39.3752 21.4797 40.3868 22.3618C41.3984 23.244 42.6857 23.7463 44.0274 23.7825C45.5665 23.8068 47.0538 23.2274 48.1708 22.1684C49.2878 21.1094 49.9457 19.6551 50.0035 18.1169C50.0182 17.3476 49.8794 16.5831 49.5952 15.8681C49.3109 15.153 48.8869 14.5019 48.348 13.9527C47.8092 13.4034 47.1661 12.9672 46.4566 12.6694C45.7471 12.3717 44.9854 12.2184 44.2159 12.2185H43.6394C42.8141 12.3279 42.0223 12.6144 41.318 13.0584C40.6138 13.5024 40.0139 14.0933 39.5593 14.7908L34.2152 22.6738C33.3895 24.0512 32.214 25.1857 30.808 25.962C29.4021 26.7383 27.8158 27.1288 26.2102 27.0939C24.6046 27.059 23.0368 26.5999 21.6659 25.7633C20.295 24.9266 19.17 23.7421 18.4048 22.3301L20.7221 18.9374C20.9425 20.2608 21.616 21.4665 22.6272 22.3483C23.6384 23.2301 24.9246 23.7331 26.2657 23.7714C27.8044 23.7985 29.2922 23.2197 30.408 22.1598C31.5239 21.0999 32.1785 19.6439 32.2306 18.1058C32.2469 17.3371 32.1094 16.5728 31.8264 15.8578C31.5434 15.1428 31.1205 14.4916 30.5825 13.9422C30.0445 13.3928 29.4021 12.9564 28.6932 12.6585C27.9843 12.3606 27.2231 12.2073 26.4542 12.2074C25.7579 12.2078 25.0671 12.3317 24.4141 12.5733C23.3368 13.0293 22.424 13.8028 21.7975 14.7908L16.2539 22.8623C15.1695 24.6049 13.5281 25.9299 11.596 26.6222C9.66386 27.3145 7.55446 27.3336 5.61014 26.6763C4.30585 26.2569 3.11847 25.5366 2.14392 24.5736C1.16936 23.6106 0.434959 22.4319 0 21.1327L3.25964 20.3233C3.58329 21.0897 4.07205 21.7752 4.69108 22.331C5.3101 22.8867 6.04413 23.2991 6.84083 23.5386C8.00975 23.8917 9.2602 23.8674 10.4146 23.4694C11.569 23.0713 12.5686 22.3197 13.2714 21.3211L25.7668 2.99393H29.7693L25.7446 8.90343C25.9663 8.90343 26.1992 8.90343 26.4209 8.90343C28.3753 8.90105 30.2784 9.52853 31.8481 10.6928C33.4179 11.8572 34.5706 13.4963 35.1355 15.3673L43.5618 3.0161H47.5643L43.5396 8.87016C43.7614 8.87016 43.9831 8.87016 44.1937 8.87016C45.4756 8.87266 46.7424 9.14586 47.9114 9.67187C49.0803 10.1979 50.1249 10.9648 50.9769 11.9225C51.8289 12.8803 52.469 14.0071 52.8554 15.2293C53.2417 16.4516 53.3655 17.7416 53.2188 19.015Z" fill="white"></path><path d="M217.694 8.63281C218.371 8.63283 219.025 8.71121 219.657 8.86914C220.289 9.02709 220.865 9.25257 221.384 9.5459C221.925 9.83917 222.41 10.1664 222.839 10.5273C223.106 10.7524 223.34 10.9888 223.546 11.2314L223.583 9.00488H227.679V25.623C227.679 27.0671 227.464 28.3417 227.035 29.4473C226.606 30.5529 225.986 31.4897 225.174 32.2568C224.362 33.0465 223.38 33.633 222.229 34.0166C221.079 34.4227 219.77 34.6259 218.304 34.626C216.972 34.626 215.641 34.4228 214.31 34.0166C213.001 33.6105 211.94 33.0801 211.128 32.4258L212.617 29.3457C213.091 29.6841 213.621 29.9774 214.208 30.2256C214.795 30.4738 215.415 30.6664 216.069 30.8018C216.746 30.9371 217.412 31.0049 218.066 31.0049C219.262 31.0049 220.255 30.8123 221.045 30.4287C221.857 30.0678 222.466 29.5041 222.872 28.7373C223.278 27.9927 223.481 27.0559 223.481 25.9277V24.2637C223.336 24.4715 223.167 24.6779 222.974 24.8789C222.365 25.5104 221.598 26.0295 220.673 26.4355C219.748 26.8191 218.799 27.0107 217.829 27.0107C216.137 27.0107 214.637 26.6158 213.328 25.8262C212.042 25.0364 211.015 23.9642 210.248 22.6104C209.504 21.234 209.131 19.6545 209.131 17.8721C209.131 16.0896 209.503 14.5101 210.248 13.1338C210.993 11.7349 212.008 10.6403 213.294 9.85059C214.603 9.03829 216.07 8.63281 217.694 8.63281ZM87.876 8.59863C89.0492 8.59863 90.1438 8.82416 91.1592 9.27539C92.1744 9.7266 93.0543 10.3472 93.7988 11.1367C94.5434 11.9038 95.1076 12.8292 95.4912 13.9121C95.8974 14.9726 96.0899 16.1349 96.0674 17.3984L96.0332 18.8535H82.8779C82.9823 19.5629 83.1911 20.2065 83.5098 20.7832C84.0062 21.6406 84.6952 22.3064 85.5752 22.7803C86.4776 23.2314 87.527 23.457 88.7227 23.457C89.5574 23.457 90.325 23.3215 91.0244 23.0508C91.7238 22.78 92.4798 22.295 93.292 21.5957L95.3564 24.4727C94.7472 25.0367 94.0475 25.5216 93.2578 25.9277C92.4907 26.3113 91.6786 26.6162 90.8213 26.8418C89.9639 27.0674 89.1171 27.1797 88.2822 27.1797C86.4095 27.1797 84.7507 26.7848 83.3066 25.9951C81.8854 25.2054 80.7683 24.1339 79.9561 22.7803C79.1663 21.4039 78.7715 19.8352 78.7715 18.0752C78.7715 16.6764 78.9971 15.4016 79.4482 14.251C79.8995 13.1002 80.5208 12.1073 81.3105 11.2725C82.1228 10.4151 83.0819 9.76082 84.1875 9.30957C85.3155 8.83584 86.5449 8.59867 87.876 8.59863ZM107.403 8.63281C109.005 8.63283 110.461 8.93669 111.77 9.5459C113.078 10.1551 114.093 11.0019 114.815 12.085L112.514 14.8604C112.175 14.3865 111.747 13.9578 111.228 13.5742C110.709 13.1906 110.156 12.8858 109.569 12.6602C108.983 12.4345 108.396 12.3213 107.81 12.3213C106.817 12.3213 105.925 12.57 105.136 13.0664C104.369 13.5402 103.759 14.206 103.308 15.0635C102.856 15.8982 102.631 16.8459 102.631 17.9062C102.631 18.9666 102.856 19.9142 103.308 20.749C103.781 21.5839 104.413 22.2497 105.203 22.7461C105.993 23.2424 106.873 23.4911 107.843 23.4912C108.429 23.4912 108.994 23.4002 109.535 23.2197C110.099 23.0167 110.63 22.735 111.126 22.374C111.622 22.013 112.085 21.5611 112.514 21.0195L114.815 23.8291C114.048 24.8219 112.988 25.6338 111.634 26.2656C110.303 26.8748 108.892 27.1797 107.403 27.1797C105.734 27.1797 104.233 26.7742 102.901 25.9619C101.57 25.1496 100.521 24.0435 99.7539 22.6445C98.9868 21.2456 98.6035 19.6662 98.6035 17.9062C98.6035 16.1464 98.9868 14.5669 99.7539 13.168C100.521 11.7691 101.57 10.6629 102.901 9.85059C104.233 9.03829 105.734 8.63281 107.403 8.63281ZM167.405 8.63281C169.165 8.63281 170.745 9.03845 172.144 9.85059C173.542 10.6403 174.637 11.7349 175.427 13.1338C176.239 14.5328 176.646 16.1237 176.646 17.9062C176.646 19.6888 176.239 21.2798 175.427 22.6787C174.637 24.0775 173.542 25.1829 172.144 25.9951C170.745 26.7848 169.165 27.1797 167.405 27.1797C165.623 27.1796 164.032 26.7848 162.633 25.9951C161.234 25.1829 160.129 24.0774 159.316 22.6787C158.504 21.2798 158.098 19.6888 158.098 17.9062C158.098 16.1237 158.504 14.5328 159.316 13.1338C160.129 11.735 161.234 10.6403 162.633 9.85059C164.032 9.03833 165.623 8.63285 167.405 8.63281ZM197.318 8.63281C199.078 8.63285 200.658 9.03834 202.057 9.85059C203.456 10.6403 204.55 11.7348 205.34 13.1338C206.152 14.5327 206.558 16.1237 206.558 17.9062C206.558 19.6888 206.152 21.2798 205.34 22.6787C204.55 24.0776 203.455 25.1828 202.057 25.9951C200.658 26.7848 199.078 27.1797 197.318 27.1797C195.536 27.1797 193.945 26.7849 192.546 25.9951C191.147 25.1828 190.041 24.0776 189.229 22.6787C188.416 21.2798 188.011 19.6888 188.011 17.9062C188.011 16.1237 188.416 14.5327 189.229 13.1338C190.041 11.7348 191.147 10.6403 192.546 9.85059C193.945 9.03834 195.536 8.63281 197.318 8.63281ZM250.362 8.59863C251.536 8.59863 252.63 8.82419 253.646 9.27539C254.661 9.72667 255.542 10.347 256.286 11.1367C257.031 11.9039 257.595 12.8291 257.979 13.9121C258.385 14.9726 258.576 16.1349 258.554 17.3984L258.52 18.8535H245.364C245.469 19.5629 245.678 20.2065 245.997 20.7832C246.493 21.6405 247.182 22.3065 248.062 22.7803C248.964 23.2314 250.013 23.457 251.209 23.457C252.044 23.457 252.811 23.3215 253.511 23.0508C254.21 22.78 254.966 22.2951 255.778 21.5957L257.843 24.4727C257.234 25.0367 256.534 25.5216 255.744 25.9277C254.977 26.3113 254.165 26.6162 253.308 26.8418C252.45 27.0674 251.603 27.1797 250.769 27.1797C248.896 27.1796 247.238 26.7847 245.794 25.9951C244.372 25.2054 243.255 24.1341 242.442 22.7803C241.653 21.4039 241.258 19.8352 241.258 18.0752C241.258 16.6763 241.484 15.4017 241.936 14.251C242.387 13.1002 243.007 12.1073 243.797 11.2725C244.609 10.4151 245.568 9.76084 246.674 9.30957C247.802 8.83582 249.031 8.59869 250.362 8.59863ZM268.028 8.63281C268.931 8.63282 269.8 8.74507 270.635 8.9707C271.492 9.19634 272.282 9.5235 273.004 9.95215C273.748 10.3582 274.38 10.8549 274.898 11.4414L272.598 13.9805C272.169 13.5744 271.695 13.2133 271.176 12.8975C270.679 12.5816 270.171 12.3329 269.652 12.1523C269.134 11.9494 268.648 11.8477 268.197 11.8477C267.769 11.8477 267.385 11.8932 267.047 11.9834C266.708 12.0511 266.426 12.1633 266.2 12.3213C265.975 12.4792 265.795 12.6826 265.659 12.9307C265.546 13.1563 265.489 13.4273 265.489 13.7432C265.512 14.0138 265.58 14.2734 265.692 14.5215C265.828 14.7471 266.009 14.9387 266.234 15.0967C266.483 15.2546 266.855 15.4356 267.352 15.6387C267.848 15.8417 268.491 16.0334 269.28 16.2139C270.386 16.5072 271.311 16.8343 272.056 17.1953C272.8 17.5562 273.387 17.9736 273.815 18.4473C274.244 18.8534 274.549 19.3277 274.729 19.8691C274.91 20.4107 275 21.0087 275 21.6631C275 22.7234 274.696 23.6711 274.087 24.5059C273.5 25.3407 272.687 25.9949 271.649 26.4688C270.634 26.9426 269.483 27.1797 268.197 27.1797C266.618 27.1797 265.196 26.9203 263.933 26.4014C262.692 25.8598 261.676 25.0924 260.887 24.0996L263.595 21.7646C264.272 22.5317 265.028 23.0844 265.862 23.4229C266.697 23.7613 267.577 23.9307 268.502 23.9307C268.886 23.9307 269.224 23.8852 269.518 23.7949C269.833 23.7047 270.105 23.5701 270.33 23.3896C270.556 23.2093 270.724 23.0057 270.837 22.7803C270.972 22.5321 271.04 22.2611 271.04 21.9678C271.04 21.4264 270.838 20.9975 270.432 20.6816C270.206 20.5237 269.845 20.3543 269.349 20.1738C268.875 19.9933 268.253 19.8123 267.486 19.6318C266.268 19.316 265.253 18.9549 264.44 18.5488C263.628 18.1201 262.996 17.6468 262.545 17.1279C262.161 16.6992 261.868 16.2134 261.665 15.6719C261.485 15.1305 261.395 14.5437 261.395 13.9121C261.395 13.1225 261.564 12.412 261.902 11.7803C262.263 11.1259 262.748 10.5617 263.357 10.0879C263.967 9.61414 264.677 9.25308 265.489 9.00488C266.302 8.75668 267.148 8.63281 268.028 8.63281ZM79.7227 7.21094H72.75V26.8418H68.3506V7.21094H61.5811V3.14941H79.7227V7.21094ZM122.128 11.4951C122.289 11.2785 122.468 11.0678 122.67 10.8662C123.324 10.1893 124.102 9.64734 125.005 9.24121C125.907 8.8351 126.833 8.63285 127.78 8.63281C129.134 8.63281 130.263 8.90289 131.165 9.44434C132.09 9.98587 132.778 10.7988 133.229 11.8818C133.703 12.9649 133.94 14.3188 133.94 15.9434V26.8418H129.777V16.248C129.777 15.3455 129.653 14.6003 129.405 14.0137C129.157 13.4045 128.773 12.9651 128.254 12.6943C127.735 12.4011 127.104 12.2656 126.359 12.2881C125.75 12.2881 125.186 12.3897 124.667 12.5928C124.171 12.7733 123.73 13.0434 123.347 13.4043C122.986 13.7427 122.692 14.1377 122.467 14.5889C122.264 15.04 122.162 15.5367 122.162 16.0781V26.8418H117.999V1.7959H122.128V11.4951ZM148.405 8.63281C149.759 8.63281 150.887 8.90283 151.79 9.44434C152.715 9.98587 153.403 10.7988 153.854 11.8818C154.328 12.9649 154.565 14.3188 154.565 15.9434V26.8418H150.402V16.248C150.402 15.3455 150.278 14.6003 150.03 14.0137C149.782 13.4045 149.398 12.9651 148.879 12.6943C148.36 12.401 147.728 12.2655 146.983 12.2881C146.374 12.2881 145.811 12.3898 145.292 12.5928C144.796 12.7732 144.355 13.0434 143.972 13.4043C143.611 13.7426 143.317 14.1378 143.092 14.5889C142.889 15.04 142.787 15.5367 142.787 16.0781V26.8418H138.624V9.00488H142.686L142.731 11.5225C142.897 11.2959 143.085 11.0765 143.295 10.8662C143.949 10.1894 144.727 9.64733 145.63 9.24121C146.532 8.8351 147.458 8.63282 148.405 8.63281ZM184.6 26.8418H180.403V1.7959H184.6V26.8418ZM237.13 26.8418H232.967V9.00488H237.13V26.8418ZM167.405 12.3213C166.435 12.3213 165.555 12.57 164.766 13.0664C163.998 13.5402 163.4 14.2061 162.972 15.0635C162.543 15.8983 162.329 16.8459 162.329 17.9062C162.329 18.9666 162.543 19.9142 162.972 20.749C163.4 21.5839 163.998 22.2497 164.766 22.7461C165.555 23.2424 166.435 23.4912 167.405 23.4912C168.375 23.4912 169.233 23.2424 169.978 22.7461C170.745 22.2497 171.343 21.5839 171.771 20.749C172.223 19.9142 172.438 18.9667 172.415 17.9062C172.438 16.8232 172.223 15.8642 171.771 15.0293C171.343 14.1945 170.745 13.5402 169.978 13.0664C169.233 12.57 168.375 12.3213 167.405 12.3213ZM197.318 12.3213C196.348 12.3213 195.467 12.57 194.678 13.0664C193.911 13.5402 193.313 14.2062 192.885 15.0635C192.456 15.8983 192.241 16.8458 192.241 17.9062C192.241 18.9667 192.456 19.9142 192.885 20.749C193.313 21.5838 193.911 22.2497 194.678 22.7461C195.467 23.2425 196.348 23.4912 197.318 23.4912C198.289 23.4912 199.146 23.2425 199.891 22.7461C200.658 22.2497 201.256 21.5838 201.685 20.749C202.136 19.9142 202.35 18.9666 202.327 17.9062C202.35 16.8232 202.136 15.8641 201.685 15.0293C201.256 14.1945 200.658 13.5402 199.891 13.0664C199.146 12.57 198.289 12.3213 197.318 12.3213ZM218.473 12.2881C217.457 12.2881 216.566 12.5359 215.799 13.0322C215.032 13.5061 214.422 14.1719 213.971 15.0293C213.542 15.8641 213.328 16.8233 213.328 17.9062C213.328 18.9667 213.542 19.9258 213.971 20.7832C214.422 21.6181 215.032 22.2723 215.799 22.7461C216.566 23.2199 217.457 23.457 218.473 23.457C219.488 23.457 220.379 23.2199 221.146 22.7461C221.936 22.2723 222.545 21.6179 222.974 20.7832C223.402 19.9484 223.617 18.9893 223.617 17.9062C223.617 16.8006 223.392 15.83 222.94 14.9951C222.512 14.1378 221.914 13.4719 221.146 12.998C220.379 12.5243 219.488 12.2881 218.473 12.2881ZM87.876 12.2881C86.7706 12.2881 85.8344 12.5021 85.0674 12.9307C84.3229 13.3593 83.7586 13.9799 83.375 14.792C83.1987 15.155 83.065 15.5619 82.9697 16.0107H92.0059V15.8418C91.9382 15.1423 91.7117 14.5326 91.3281 14.0137C90.9446 13.4723 90.448 13.055 89.8389 12.7617C89.2523 12.4459 88.5979 12.2881 87.876 12.2881ZM250.362 12.2881C249.257 12.2881 248.321 12.5021 247.554 12.9307C246.809 13.3593 246.245 13.9798 245.861 14.792C245.685 15.155 245.551 15.5619 245.456 16.0107H254.492V15.8418C254.424 15.1423 254.199 14.5326 253.815 14.0137C253.432 13.4722 252.935 13.055 252.326 12.7617C251.74 12.4458 251.084 12.2881 250.362 12.2881ZM234.998 0.374023C235.855 0.374063 236.51 0.588902 236.961 1.01758C237.435 1.42366 237.672 2.02116 237.672 2.81055C237.672 3.51002 237.435 4.08583 236.961 4.53711C236.487 4.98834 235.833 5.21382 234.998 5.21387C234.163 5.21387 233.509 5.01058 233.035 4.60449C232.584 4.17578 232.357 3.57772 232.357 2.81055C232.357 2.0887 232.595 1.50197 233.068 1.05078C233.542 0.599502 234.186 0.374023 234.998 0.374023Z" fill="white"></path></svg>